# xmcd
#
# Track frame offsets:
#	150
#	11184
#	25704
#	36297
#	43700
#	56768
#	68454
#	102183
#	113110
#	134494
#
# Disc length: 2058 seconds
#
# Revision: 1
# Processed by: cddbd v1.5.2PL0 Copyright (c) Steve Scherf et al.
# Submitted via: audiograbber 1.83.01
#
DISCID=8308080a
DTITLE=Various Artist - Forever Soul R&B [Disc 3]
DYEAR=2008
DGENRE=R&B
TTITLE0=Save the Last Dance for Me - The Drifters
TTITLE1=Stand By Me - Ben E. King
TTITLE2=Walk On By (Live) - Dionne Warwick
TTITLE3=Stay - Maurice Williams
TTITLE4=Baby You've Got What It Takes - Brook Benton
TTITLE5=Under the Boardwalk - The Drifters
TTITLE6=Georgia on My Mind - Ray Charles
TTITLE7=He's a Rebel - The Crystals
TTITLE8=Turn Off the Lights - Teddy Pendergrass
TTITLE9=Supernatural Thing (Part 1) - Ben E. King
EXTD=
EXTT0=
EXTT1=
EXTT2=
EXTT3=
EXTT4=
EXTT5=
EXTT6=
EXTT7=
EXTT8=
EXTT9=
PLAYORDER=
